#!OML:ASF F:\VICON\USERDATA\INSTALL\rory3\rory3.ASF
:FULLY-SPECIFIED
:DEGREES
37
root 0.7683113125145784 18.0877051124231 3.41571370693661 -1.1479238262330362 4.692201766683875 -2.2587852921695
lfemur 4.079478300522641 -2.6874106695175337 -23.854230562721916
ltibia 17.834286059925677
lfoot 10.092976045907387 -13.088351174310375
ltoes -7.938367430984388
rfemur -23.114235505919986 -0.7556148218956205 23.88000706774537
rtibia 15.459158207425638
rfoot -3.9913206893827597 -13.99838897484371
rtoes -3.3421563633998157
lowerback 11.534579554188907 -1.680117066449986 1.7270619414532822
upperback -0.025263866105486643 -1.86803272466522 2.043474243912299
thorax -5.015885672701662 -0.9599456956243619 1.4924253540288344
lowerneck -16.439112198516405 -3.1599299827110734 -2.626226722131335
upperneck 21.680431028457825 -3.9888761848011915 1.508117254780217
head 9.687854126352537 -1.9016447573118795 0.36387642161097333
lclavicle -2.027648542942928e-15 -7.125144841968333e-16
lhumerus -30.979548547625768 0.9692027243087398 82.27223948715213
lradius 33.03449304400297
lwrist 9.984909858838574
lhand -28.981627778398543 19.50284050741407
lfingers 7.12502
lthumb -2.0997285375289194 49.80203083679524
rclavicle -2.026702599963716e-15 -7.118902428270523e-16
rhumerus -35.153719956773806 -19.91422331298004 -76.73022444388377
rradius 26.80489409702535
rwrist 3.0085589954260006
rhand -17.290529648893692 22.02811203053492
rfingers 7.12502
rthumb 8.423373720193094 -7.7636632203061815
38
root 0.7854302707885177 18.175847953093847 4.575055950579529 -1.6362615202930788 5.726974382915355 -2.355778889055574
lfemur 4.377239076567319 -3.2217722924883176 -23.02348351750425
ltibia 20.23786188340205
lfoot 13.004183023807025 -14.720855235443107
ltoes -6.2590795132221775
rfemur -21.091300070940566 0.6684100528446524 23.95474127941613
rtibia 16.508761624234182
rfoot -3.207722623314223 -10.719336090893274
rtoes -1.5659895685282739
lowerback 11.164190957508517 -1.9902781886756673 1.8941819853794941
upperback 0.011891229059103559 -2.212485903609949 2.1051701216878036
thorax -4.865349362540673 -1.1470387332182672 1.6086831273043853
lowerneck -16.30700261802622 -3.0993794005227135 -2.7615904680430083
upperneck 21.971608460753227 -3.8726571279367796 1.4257144683959089
head 9.77724581957399 -1.8705018700804847 0.3769300478652333
lclavicle -2.0257838167644752e-15 -7.113265953925856e-16
lhumerus -31.037837506944882 0.1955303749345605 82.70620293982843
lradius 33.61577369656399
lwrist 10.055703770854674
lhand -28.583671007484345 19.792454019024646
lfingers 7.12502
lthumb -1.7746710421165568 49.63494058468293
rclavicle -2.027751516076115e-15 -7.125599225108398e-16
rhumerus -35.52188129011122 -21.13825981936613 -75.77297668088582
rradius 25.365625573465906
rwrist 4.23907912772116
rhand -17.14881052989952 22.43600381460091
rfingers 7.12502
rthumb 8.72647681201243 -6.670239616402795
39
root 0.8164043972149237 18.243247013063147 5.459790272821674 -1.5355459852515079 5.989522291504116 -2.3212262656459712
lfemur 3.415071028144702 -3.320509681451795 -22.167349636918665
ltibia 23.026684060680132
lfoot 14.445199837948875 -15.769053712682016
ltoes -5.586443151007346
rfemur -19.459909960681017 1.8652797974771222 24.305661438235067
rtibia 18.458728592142734
rfoot -1.537957907487895 -8.181620152780928
rtoes 2.1158038115444793
lowerback 10.443861546301488 -1.972645176950994 1.7591422502913021
upperback -0.0906075448080561 -2.2847866611889196 2.119791277766846
thorax -4.654589666892035 -1.1883449862130882 1.6963519304036407
lowerneck -16.168391060348764 -3.0947042032074004 -2.87545891402264
upperneck 22.23729046763418 -3.865010503093088 1.4696033656598533
head 9.834515920299632 -1.8748871679261958 0.425373282697851
lclavicle -2.026844048371006e-15 -7.120031097366593e-16
lhumerus -31.428639429169014 -0.33870785742002507 82.93668120348059
lradius 33.92467307392176
lwrist 10.132387553420928
lhand -28.553685812150764 19.34390387496744
lfingers 7.12502
lthumb -1.7544627071230352 49.3961775411737
rclavicle -2.02885966191681e-15 -7.132675039542402e-16
rhumerus -35.73460125163445 -22.13294531843077 -75.00947070747806
rradius 23.954724080175474
rwrist 5.528510820422772
rhand -16.882588149269907 22.559203016805522
rfingers 7.12502
rthumb 8.976368588677309 -6.0071733230352
40
root 0.8282318582805455 18.306417678741045 6.536572560198454 -1.5924895303255049 5.968935290097372 -2.162514127952444
lfemur 1.669068924423625 -3.49599708653379 -21.43174085167069
ltibia 25.8789232462471
lfoot 13.404307862705375 -15.573450889824208
ltoes -5.763882410830066
rfemur -17.69608207938551 2.330977666520322 24.933457285564483
rtibia 19.90793430986793
rfoot -1.10413822278724 -7.002539224190689
rtoes 6.475105221204743
lowerback 10.124595467251842 -1.9186013734666914 1.5592847769461
upperback -0.31940712056154247 -2.3230443987153913 2.1190197230351706
thorax -4.8175506218567765 -1.1593394290651684 1.7408202730909927
lowerneck -15.994911544074025 -3.1055428557172453 -2.9649844135324837
upperneck 22.380789729162746 -3.8677857116442325 1.5141363267656083
head 9.844038517494411 -1.8757167034787052 0.4572833459006397
lclavicle -2.0261606523699413e-15 -7.115666649539462e-16
lhumerus -31.783261336376444 -0.8358522016678869 83.07238006766926
lradius 33.921852850774066
lwrist 10.217928005806112
lhand -28.67853457327233 19.715172745420862
lfingers 7.12502
lthumb -1.859623281787436 49.63906427035976
rclavicle -2.029240170836832e-15 -7.135105624823545e-16
rhumerus -35.668981172462246 -22.7794379912622 -74.58315982388564
rradius 22.79407044849491
rwrist 6.497793944347962
rhand -16.703738859380586 22.385651664082847
rfingers 7.12502
rthumb 9.0588303412776 -6.00646123516885
41
root 0.8344605040522763 18.315137294349302 7.786851054649002 -1.645846698685422 6.044299076769307 -3.0720940623816393
lfemur -1.336574273154989 -3.80860366824961 -19.81069938971869
ltibia 29.259715226638978
lfoot 11.194821822184705 -14.046168312508719
ltoes -6.527786764648431
rfemur -15.72827856744163 2.5200002399171924 26.62642002951181
rtibia 20.523816911273556
rfoot -2.1337561054928376 -7.00467585461121
rtoes 7.762955489842101
lowerback 10.066531400414995 -1.9546912915498325 2.2407289826911176
upperback -0.4943990775024901 -2.223297658078247 2.2871617067298304
thorax -5.101370424607474 -1.1692715567410046 1.551122578957439
lowerneck -15.828740316220552 -3.1154637999399593 -3.1302227030685223
upperneck 22.397722754971966 -3.884287787540674 1.5739783973710368
head 9.820699135817131 -1.8810545905265723 0.5078204680255625
lclavicle -2.0255264841568132e-15 -7.11163249415498e-16
lhumerus -31.93377362793652 -1.157769972848171 83.12559731474137
lradius 33.46161429321516
lwrist 9.930326557499864
lhand -28.722746752362973 19.319324647120116
lfingers 7.12502
lthumb -1.8886780135838874 49.094994594302136
rclavicle -2.0304026335840865e-15 -7.142527476141992e-16
rhumerus -35.290386158876125 -23.30016125979168 -74.10018492565204
rradius 21.880779251926405
rwrist 7.272435065215705
rhand -16.71197691448843 22.48179733607696
rfingers 7.12502
rthumb 8.990486918410298 -6.269110835973416
42
root 0.8528317509544272 18.29941548735949 8.795265297566619 -1.8170122232349772 5.569362130576716 -4.153547017516638
lfemur -4.71880089999229 -3.362341003284297 -18.405268446018635
ltibia 32.424898267611
lfoot 8.952693531190716 -12.238513973417518
ltoes -6.042505994767172
rfemur -13.493702013732626 2.8659937687379404 28.400384983987077
rtibia 20.888762211769702
rfoot -3.8064239154968273 -7.380559507472272
rtoes 7.857558929951582
lowerback 10.017331951767101 -1.7382159098051781 3.0120765986588802
upperback -0.5407984534167579 -1.7977312368805365 2.472677890983519
thorax -5.2491321712224766 -1.0178481074436685 1.246768134262973
lowerneck -15.72786176095501 -3.097182350409535 -3.2294571755090122
upperneck 22.393592971997126 -3.854112726932058 1.5077827904775407
head 9.802408013279084 -1.8753343794301096 0.505338563447705
lclavicle -2.0260367844848512e-15 -7.114877823994455e-16
lhumerus -31.883035826180464 -0.8123907965061585 82.95649942947107
lradius 32.667335941795784
lwrist 9.510868335808524
lhand -29.029403834736463 19.00360192260579
lfingers 7.12502
lthumb -2.2572504042046777 48.812298248224224
rclavicle -2.0296676734126755e-15 -7.137834378522078e-16
rhumerus -34.589528207799326 -23.59666887236282 -73.67327199407647
rradius 21.328228352608857
rwrist 7.611943711178803
rhand -16.905552552836955 22.475571026201433
rfingers 7.12502
rthumb 8.94046239507569 -6.651902673065154
